<svg id="Layer_4" data-name="Layer 4" xmlns="http://www.w3.org/2000/svg" viewBox="0 0 32 32"><defs><style>.cls-1{fill:#fbc408;}.cls-2{fill:#013066;}</style></defs><path class="cls-1" d="M21.76,15.14l2.38-1.37a2.2,2.2,0,0,1,2.32,0,1.9,1.9,0,0,1,.64.65c.64,1.18,1.53.62,1.53.62l2.62-1.51a7.18,7.18,0,0,0-1-1.21c-.63-.47-1.54.33-2.52.83a1.13,1.13,0,0,1-1.5-.3,2,2,0,0,0-2.68-1.06c-.94.37-1.89,1.1-2.8,1.54A1.08,1.08,0,0,1,19.32,13a2.31,2.31,0,0,0-3.06-.91l-3.73,2.13.65.78a1.3,1.3,0,0,0,1.76.27L17.12,14a2.23,2.23,0,0,1,3.13.7A1,1,0,0,0,21.76,15.14Z"/><path class="cls-2" d="M.78,17.67c0-.44,0-.8,0-1.13h.82l.05.55h0a1.31,1.31,0,0,1,1.17-.64,1.09,1.09,0,0,1,1.06.7h0a1.54,1.54,0,0,1,.47-.48,1.37,1.37,0,0,1,.77-.22c.64,0,1.28.43,1.28,1.65v2.23H5.47v-2.1c0-.63-.22-1-.68-1a.73.73,0,0,0-.68.5,1.17,1.17,0,0,0,0,.32v2.28h-1V18.14c0-.54-.21-.91-.66-.91a.76.76,0,0,0-.69.54.86.86,0,0,0-.05.32v2.24H.78Z"/><path class="cls-2" d="M9.28,20.33l-.07-.42h0a1.39,1.39,0,0,1-1.12.51,1.13,1.13,0,0,1-1.2-1.13c0-1,.85-1.44,2.26-1.44v-.06c0-.25-.1-.66-.78-.66a2.06,2.06,0,0,0-1,.28l-.19-.62a2.7,2.7,0,0,1,1.38-.34,1.42,1.42,0,0,1,1.57,1.6v1.37a5.84,5.84,0,0,0,.06.91Zm-.13-1.86c-.68,0-1.33.14-1.33.71a.51.51,0,0,0,.55.55.77.77,0,0,0,.75-.53.46.46,0,0,0,0-.2Z"/><path class="cls-2" d="M10.79,17.67c0-.44,0-.8,0-1.13h.84l.05.57h0a1.38,1.38,0,0,1,1.22-.66c.67,0,1.36.43,1.36,1.63v2.25h-1V18.19c0-.54-.2-1-.73-1a.8.8,0,0,0-.75.56,1,1,0,0,0-.05.31v2.23h-1Z"/><path class="cls-2" d="M18.44,15v4.27c0,.38,0,.8,0,1H17.6l0-.59h0a1.37,1.37,0,0,1-1.24.68,1.74,1.74,0,0,1-1.65-1.92,1.81,1.81,0,0,1,1.72-2,1.24,1.24,0,0,1,1.08.49h0V15Zm-1,3.13a1.13,1.13,0,0,0,0-.25.83.83,0,0,0-.83-.66c-.63,0-1,.54-1,1.23s.35,1.2,1,1.2a.87.87,0,0,0,.84-.68,1.2,1.2,0,0,0,0-.28Z"/><path class="cls-2" d="M19.14,20.33V16.55h.94v3.78Z"/><path class="cls-2" d="M20.8,17.76c0-.5,0-.87,0-1.21h.84l0,.72h0a1.13,1.13,0,0,1,1-.81l.23,0v.9l-.28,0a.86.86,0,0,0-.87.72,2.48,2.48,0,0,0,0,.29v2h-1Z"/><path class="cls-2" d="M23.42,20.33V16.55h.94v3.78Z"/></svg>