<svg id="Layer_1" data-name="Layer 1" xmlns="http://www.w3.org/2000/svg" xmlns:xlink="http://www.w3.org/1999/xlink" viewBox="0 0 1275 80.94"><defs><style>.cls-1{fill:#008ceb;}.cls-2{fill:#fefefe;}.cls-3{fill:#4b2489;}.cls-4,.cls-6{fill:#fff;}.cls-4{fill-opacity:0.01;}.cls-5{fill:#00aed6;}.cls-7{fill:#f44336;}.cls-8{fill:#e82529;}</style></defs><title>qris-partner-full</title><path class="cls-1" d="M1031.56,58.46c4.69.33,10.17-3.32,12.1-5.4a18.41,18.41,0,0,0,.11-25.33c-2.51-2.83-8.41-6-12.14-5.52h-13.54V58.46h13.47Zm-5.83-7.84V30a48.21,48.21,0,0,1,6.36,0,9.9,9.9,0,0,1,4.61,1.78c7.76,5.31,4.53,18-4.74,18.81a48,48,0,0,1-6.23,0Z" transform="translate(2.19 0.33)"/><path class="cls-1" d="M1150.21,58.54h7.7v-7.8h15.29V58.5h7.71V45.64c0-3.88.32-8.72-.65-12.23a15.28,15.28,0,0,0-29.43-.17c-1,3.47-.68,8.45-.68,12.3V58.61Zm7.71-15.65c0-3.23-.39-6.7,1.13-9.19a7.52,7.52,0,0,1,6.57-3.73,7.61,7.61,0,0,1,6.52,3.77c1.5,2.58,1.14,5.82,1.1,9.16Z" transform="translate(2.19 0.33)"/><path class="cls-1" d="M1062.09,58.53h7.68c0-1.63-.21-6.61.07-7.8h15.25v7.8h7.69V45.59c0-3.69.35-9-.64-12.24a15.29,15.29,0,0,0-29.43-.15c-1,3.36-.68,8.51-.68,12.25,0,4.32-.1,8.76,0,13.07Zm7.68-15.64c0-3.23-.38-6.74,1.14-9.18a7.58,7.58,0,0,1,13.09,0c1.51,2.59,1.15,5.87,1.12,9.17Z" transform="translate(2.19 0.33)"/><path class="cls-1" d="M1106.33,36.37l-.11,5.39c0,4.53-.22,13,0,16.66h7.53c.17-2.58-.27-21,.2-21.55,0-3.57,3.73-6.9,7.5-6.91a7.55,7.55,0,0,1,5.25,2.09,7.3,7.3,0,0,1,2.4,4.88c.35.2.07,19.41.18,21.54h7.54l-.06-22c.19-1.73-.85-4.38-1.51-5.73a15.25,15.25,0,0,0-27.35-.23C1107.25,31.87,1106.17,34.6,1106.33,36.37Z" transform="translate(2.19 0.33)"/><circle class="cls-1" cx="971.39" cy="40.54" r="35.33"/><path class="cls-2" d="M989.78,40.36v10c0,.64-.28.78-.82.46a17.78,17.78,0,0,0-2.26-1.15,15.38,15.38,0,0,0-7.44-1,35.52,35.52,0,0,0-8,2c-2.58.87-5.12,1.82-7.76,2.55a21.36,21.36,0,0,1-6.74.88,14.17,14.17,0,0,1-7.12-2.22,1.7,1.7,0,0,1-.84-1.56V30.76c0-.32,0-.69.28-.85s.58.1.82.26a13.63,13.63,0,0,0,7.81,2.29,21,21,0,0,0,5.88-1c2.69-.84,5.29-1.94,7.94-2.88a48,48,0,0,1,6.32-1.94,13.68,13.68,0,0,1,10.82,2,2.37,2.37,0,0,1,1.13,2.11v9.71Z" transform="translate(2.19 0.33)"/><path class="cls-3" d="M454.31,62.27a35.09,35.09,0,0,1-47.59,0A31.5,31.5,0,0,1,406,17.73l.69-.68A35,35,0,0,1,454.34,17a31.48,31.48,0,0,1,.75,44.47q-.36.38-.72.72M430.61,18.1a20.86,20.86,0,0,0-21,20.64v.93a21,21,0,0,0,41.95,0h0a20.85,20.85,0,0,0-20.1-21.56h-.82m102.45-2.89L507.43,72.46,506,72.19c-7.33-1.32-8.82-3.16-12.24-10.6L474.51,19.66h-7.23V9.46h27.31v10.2h-6.5l15.45,34.65,15-34.65h-8.09V9.46h22.64Zm62,47.05a35.07,35.07,0,0,1-47.57,0,31.51,31.51,0,0,1-.68-44.54l.68-.68a35.07,35.07,0,0,1,47.57,0,31.41,31.41,0,0,1,.8,44.41l-.8.8M571.5,18.1a20.87,20.87,0,0,0-21.07,20.67h0v.9a21,21,0,1,0,42,2c0-.68,0-1.37,0-2a20.82,20.82,0,0,0-20-21.56h-.84" transform="translate(2.19 0.33)"/><path class="cls-4" d="M0,0H382.28V80.61H0Z" transform="translate(2.19 0.33)"/><ellipse class="cls-5" cx="43.52" cy="40.63" rx="41.33" ry="34.54"/><path class="cls-6" d="M65.41,39.23c-.32-4.37-4.75-7.77-10-7.56H29.28a1.6,1.6,0,0,1-1.72-1.44h0a1.6,1.6,0,0,1,1.72-1.44H55.73c-.13-3-2.57-5.54-6-6.35a80.5,80.5,0,0,0-23.3,0c-4.39.92-7.67,4-8.27,7.69a57.64,57.64,0,0,0,0,20.46c.92,3.93,4.67,7,9.42,7.68a138.71,138.71,0,0,0,28.81,0c4.27-.74,7.49-3.66,8-7.25A46.68,46.68,0,0,0,65.41,39.23Zm-8.57,4.84v1.28a1.61,1.61,0,0,1-1.75,1.44h0a1.61,1.61,0,0,1-1.73-1.44h0V44.07a1.91,1.91,0,0,1-.51-2.65,1.68,1.68,0,0,1,.3-.35,2.85,2.85,0,0,1,1.94-.76,2.39,2.39,0,0,1,2.62,2.15A2,2,0,0,1,56.84,44.07Z" transform="translate(2.19 0.33)"/><path d="M114.93,57.46c3.49,4.18,9.33,6.56,15.44,6.31,7.2,0,12.49-3.84,12.49-9.07V52h-.17a22,22,0,0,1-14.83,4.64c-8.72.2-16.88-3.54-21.32-9.77a17.29,17.29,0,0,1-.22-20.32c4.3-6.29,12.38-10.16,21.1-10.09a23.27,23.27,0,0,1,15.27,4.5h.17V17.16h12.32V54.58c0,10.88-10.31,18.42-24.81,18.42-9.51.42-18.68-3-24.64-9.14Zm27.42-23.28c0-4.35-5.91-8.34-12.5-8.34-8.33,0-13.88,4.21-13.88,10.51a9.31,9.31,0,0,0,3.67,8,13.67,13.67,0,0,0,9.69,2.81c7.21,0,13-3.77,13-8.48Zm45.26-18.13c15,0,25.95,8.92,25.95,20.3s-10.93,20.31-25.95,20.31c-9.07.49-17.72-3.27-22.4-9.75a17.54,17.54,0,0,1,0-21.11c4.68-6.45,13.33-10.22,22.4-9.73Zm0,9.42c-7.2.06-13,5-12.92,10.93s5.84,10.83,13.05,10.84,13-4.91,13-10.89a9.6,9.6,0,0,0-3.65-7.89,13.94,13.94,0,0,0-9.44-3Zm32.61-8.33h12.32v3.41h.18a22.88,22.88,0,0,1,14.83-4.5c13.23.2,23.84,9.21,23.86,20.27s-10.54,20.14-23.77,20.36a25.17,25.17,0,0,1-14.4-4.06h-.15V71.91H220.22Zm25.34,8.41c-6.77,0-12.5,4-12.5,8.34v4.86c0,4.64,5.56,8.48,12.58,8.48,7.19,0,13-4.9,12.93-10.87s-5.82-10.81-13-10.81Zm50.59,7.11c8.42-.95,10.94-2,10.94-3.92,0-2.54-3.22-4.06-8.16-4.06-5.34-.36-10.21,2.56-11.46,6.89l-12.14-2.11C277.06,21.62,286.7,16,298.58,16c13.45,0,21.78,5.73,21.78,15.08V55.59H308.82v-4.2h-.19a21,21,0,0,1-15.54,5.29c-10.16,0-17.18-4.64-17.18-11.46,0-7.18,5.73-10.88,20.22-12.54Zm12,4.06H308c-1.13,1.38-3.56,2.17-9.8,3.12-7.55,1.16-10.24,2.39-10.24,4.63s2.26,3.34,7.11,3.34c7.38,0,13.11-2.83,13.11-6.52V36.72ZM344.8,53.46l-21.26-36.3h14.15l14,25.09h.17l13.76-25.09h14.23L348,71.92H333.87Z" transform="translate(2.19 0.33)"/><path class="cls-7" d="M691.59,4.37,639,11a2.75,2.75,0,0,0-2.4,2.69V62a5.83,5.83,0,0,0,5.84,5.84h57.88A5.83,5.83,0,0,0,706.19,62V22.25a5.82,5.82,0,0,0-5.84-5.79H643.82a2.11,2.11,0,0,1-1.93-2.27h51.05v-8C692.82,4.78,692.29,4.26,691.59,4.37Z" transform="translate(2.19 0.33)"/><path class="cls-6" d="M671.5,57.76a14.2,14.2,0,0,1-10.57-4.44l2.28-2.69A11.72,11.72,0,0,0,667,53.38a10.45,10.45,0,0,0,4.5,1,7.11,7.11,0,0,0,4.67-1.4,4.3,4.3,0,0,0,1.64-3.52,3.87,3.87,0,0,0-.41-1.92,4,4,0,0,0-1-1.41,7,7,0,0,0-1.58-1l-2-1-4.56-1.87a13.54,13.54,0,0,1-1.87-1.11,7.24,7.24,0,0,1-4-6.66,7.14,7.14,0,0,1,.7-3.15,7.61,7.61,0,0,1,2-2.57,8.2,8.2,0,0,1,3.15-1.64,11.44,11.44,0,0,1,3.8-.64,12.25,12.25,0,0,1,8.87,3.74l-2,2.51a9.4,9.4,0,0,0-3-2.1,8.83,8.83,0,0,0-3.79-.76A6.77,6.77,0,0,0,668,31.05a3.85,3.85,0,0,0-1.52,3.21,3.68,3.68,0,0,0,.41,1.87A5.13,5.13,0,0,0,668,37.46a12.94,12.94,0,0,0,1.63,1l1.81.82,4.27,1.81c.81.41,1.63.82,2.39,1.29a7.56,7.56,0,0,1,3.33,3.85,9.06,9.06,0,0,1,.47,2.92A8,8,0,0,1,679.15,55a9.6,9.6,0,0,1-3.21,1.87A14,14,0,0,1,671.5,57.76Z" transform="translate(2.19 0.33)"/><path class="cls-7" d="M717.52,22.54a9.13,9.13,0,0,0,4.74,1.34c2.68,0,4.32-1.4,4.32-3.5s-1.11-3-3.92-4-5.37-2.92-5.37-5.87a5.86,5.86,0,0,1,6.08-5.6l.52,0a9.36,9.36,0,0,1,4.56,1l-.76,2.16a7.57,7.57,0,0,0-3.86-1c-2.8,0-3.91,1.69-3.91,3.09S721.2,13,724,14.13s5.25,3,5.25,5.84-2.33,5.84-7.18,5.84a10.54,10.54,0,0,1-5.26-1.35Z" transform="translate(2.19 0.33)"/><path class="cls-7" d="M732.09,4.61H735V14.89h0a5,5,0,0,1,1.93-1.7,5.94,5.94,0,0,1,2.68-.64,4.91,4.91,0,0,1,5,4.76,4.37,4.37,0,0,1-.08,1.08V26.1H742V18.33c0-2-.88-3.85-3.33-3.85a3.94,3.94,0,0,0-3.55,2.39,3,3,0,0,0,0,1.11v7.83h-2.92Z" transform="translate(2.19 0.33)"/><path class="cls-7" d="M760.45,19.21a6.54,6.54,0,0,1-6.17,6.89h-.66A6.37,6.37,0,0,1,747,20a4.86,4.86,0,0,1,0-.54,6.55,6.55,0,0,1,6.17-6.89h.66a6.25,6.25,0,0,1,6.61,5.87v0A6.26,6.26,0,0,1,760.45,19.21Zm-10.86,0a4.49,4.49,0,0,0,3.92,5h.24A4.54,4.54,0,0,0,758,19.37v-.24a4.26,4.26,0,0,0-8.35-1.72,4.15,4.15,0,0,0,0,1.72Z" transform="translate(2.19 0.33)"/><path class="cls-7" d="M762.61,17.05V12.84h2.28v2.22h0a6,6,0,0,1,10.86,3.28q0,.4,0,.81a6.32,6.32,0,0,1-5.66,6.92h-.74a5.15,5.15,0,0,1-4.38-2h0v9.11h-2.51Zm2.52,3.5a3.7,3.7,0,0,0,0,.94,3.9,3.9,0,0,0,3.85,2.8c2.69,0,4.26-2,4.26-5a4.32,4.32,0,0,0-3.74-4.83h0a3.23,3.23,0,0,0-.44,0,4.09,4.09,0,0,0-3.86,2.92,7.22,7.22,0,0,0,0,.93Z" transform="translate(2.19 0.33)"/><path class="cls-7" d="M780.72,19.74a4.32,4.32,0,0,0,4.07,4.56h0a3,3,0,0,0,.6,0,9.89,9.89,0,0,0,3.8-.7l.47,1.69a12.15,12.15,0,0,1-4.62.82,6.18,6.18,0,0,1-6.7-5.61v0a4.61,4.61,0,0,1,0-.91,6.42,6.42,0,0,1,5.78-7h0a6.91,6.91,0,0,1,.91,0,5.83,5.83,0,0,1,5.85,5.83v.3a3.76,3.76,0,0,1,0,1.06Zm7.3-1.93A3.38,3.38,0,0,0,785.09,14h-.5a3.91,3.91,0,0,0-3.79,3.8Z" transform="translate(2.19 0.33)"/><path class="cls-7" d="M795.44,19.74a4.32,4.32,0,0,0,4.06,4.56,3.11,3.11,0,0,0,.61,0,9.53,9.53,0,0,0,3.8-.7l.46,1.69a12,12,0,0,1-4.55.82,6.24,6.24,0,0,1-6.73-5.65,6,6,0,0,1,0-.85,6.49,6.49,0,0,1,5.94-7h.55a5.84,5.84,0,0,1,5.84,5.83V19.8Zm7.12-1.93a3.37,3.37,0,0,0-2.93-3.76h-.56a3.92,3.92,0,0,0-3.8,3.8Z" transform="translate(2.19 0.33)"/><path class="cls-7" d="M743.75,43a12.78,12.78,0,0,1-11.86,13.64h0q-.66,0-1.32,0h-8.18V68h-6.54V29.9h14.72A13.26,13.26,0,0,1,743.75,43Zm-7.24.29A6.89,6.89,0,0,0,730.67,36h-8.3V50.46h8.06A7,7,0,0,0,736.51,43.27Z" transform="translate(2.19 0.33)"/><path class="cls-7" d="M771.84,41.17V68H766V63.89a11.66,11.66,0,0,1-9.46,4.79A12.69,12.69,0,0,1,744.09,55.8a8.9,8.9,0,0,1,.09-1.26,12.67,12.67,0,0,1,11.18-14h0c.35,0,.71-.06,1.07-.07a11.66,11.66,0,0,1,9.46,4.79V41.17Zm-5.84,13a7.77,7.77,0,0,0-7.59-7.94h-.32a7.59,7.59,0,0,0-7.61,7.57h0v.54a7.31,7.31,0,0,0,6.82,7.76h.78A7.78,7.78,0,0,0,766,54.46a1.41,1.41,0,0,0,0-.29Z" transform="translate(2.19 0.33)"/><path class="cls-7" d="M803.56,41.17,787.9,78h-6.36l4.38-10.23L774.59,41.17h6.77l7.83,19.57,7.53-19.57Z" transform="translate(2.19 0.33)"/><rect class="cls-8" x="837.47" y="4.79" width="70.15" height="70.15" rx="4.52" ry="4.52"/><ellipse class="cls-2" cx="863.52" cy="17.47" rx="2.52" ry="2.07" transform="translate(273.16 646.18) rotate(-47.84)"/><ellipse class="cls-2" cx="867.23" cy="35.86" rx="2.52" ry="2.07" transform="translate(260.75 654.98) rotate(-47.84)"/><ellipse class="cls-2" cx="885.15" cy="50.77" rx="2.5" ry="2.13" transform="translate(146.7 538.48) rotate(-36.63)"/><path class="cls-2" d="M859.54,32.88h3.55a.31.31,0,0,0,.3-.27L865,20.89a.29.29,0,0,0-.23-.34h-3.62a.33.33,0,0,0-.3.27l-1.6,11.71a.32.32,0,0,0,.29.35h0Z" transform="translate(2.19 0.33)"/><path class="cls-2" d="M874.27,25.14l-1,7.42a.35.35,0,0,0,.29.39h3.53a.34.34,0,0,0,.34-.3l1-7.41a4.34,4.34,0,0,0-3.66-4.9,4,4,0,0,0-.49,0,44.13,44.13,0,0,0-5.14.15,2.19,2.19,0,0,0-1.93,1.88l-1.58,10.55a2.94,2.94,0,0,1,3.49-.62,1.71,1.71,0,0,1,.66.62h0l1.24-9a.34.34,0,0,1,.34-.3h1.44C873.85,23.68,874.37,24.18,874.27,25.14Z" transform="translate(2.19 0.33)"/><path class="cls-2" d="M879.83,32.88h3.56a.33.33,0,0,0,.3-.27L886,16a.32.32,0,0,0-.3-.34h-3.56a.31.31,0,0,0-.32.27l-2.3,16.58a.31.31,0,0,0,.25.34Z" transform="translate(2.19 0.33)"/><path class="cls-2" d="M853.09,16.81l-1.66,11.52a.67.67,0,0,0,.59.74h6.33a.27.27,0,0,1,.27.27h0l-.53,3.24a.34.34,0,0,1-.34.3h-7.41a3.4,3.4,0,0,1-3.4-3.38,3.84,3.84,0,0,1,0-.48l1.76-12.35a.25.25,0,0,1,.25-.23h3.68a.39.39,0,0,1,.37.37Z" transform="translate(2.19 0.33)"/><path class="cls-2" d="M893.35,34.46l-3.93-8.37a.4.4,0,0,1,0-.37l4.2-4.58c0-.17,0-.51-.22-.51h-3.88a.42.42,0,0,0-.3.12L885,25.66a.36.36,0,0,0,0,.35l4.1,8.82a.38.38,0,0,0,.3.2H893a.38.38,0,0,0,.39-.37.39.39,0,0,0-.07-.23Z" transform="translate(2.19 0.33)"/><path class="cls-2" d="M865,38.86a.41.41,0,0,0-.4.32l-1.4,10.28a1.5,1.5,0,0,1,0,.3,4.39,4.39,0,0,1-3.39,3.46v.17a12.15,12.15,0,0,0,1,2.94.4.4,0,0,0,.47.22,6.9,6.9,0,0,0,6.06-5.6l1.6-11.67a.39.39,0,0,0-.33-.44h0Z" transform="translate(2.19 0.33)"/><path class="cls-2" d="M883.93,47l.87-9.88a.51.51,0,0,1,.52-.47h3.46a.36.36,0,0,1,.37.35h0v.08l-2,9.89a.27.27,0,0,1-.24.22h-2.67C884,47.36,883.91,47.26,883.93,47Z" transform="translate(2.19 0.33)"/><path class="cls-2" d="M899.35,58.08a191.72,191.72,0,0,0-55.79,4.7l3.11,1.8a3.23,3.23,0,0,0,2.47.32A189.71,189.71,0,0,1,877,59.71C892.21,58.11,899.35,58.08,899.35,58.08Z" transform="translate(2.19 0.33)"/><path class="cls-2" d="M881.71,39.55c-5.49-1.41-8.43-.67-10.28,1.16A10.51,10.51,0,0,0,869.5,47a4.27,4.27,0,0,0,3.74,4.74h.39a13.86,13.86,0,0,0,6.62-.91,1.17,1.17,0,0,0,.67-.92c.24-2,1-8.13,1.26-9.88A.54.54,0,0,0,881.71,39.55ZM877,48s-2.77.94-3.07-1,.47-4.12,1.61-4.52a2.92,2.92,0,0,1,2.1,0Z" transform="translate(2.19 0.33)"/><path class="cls-2" d="M858.78,35.74a1.24,1.24,0,0,0-1.19-1h-2.72a1.91,1.91,0,0,0-1.68,1.14l-6.84,15c0,.24,0,.56.24.54h3.74a.33.33,0,0,0,.27-.2l1.33-3a.29.29,0,0,1,.25-.15h4.13a.33.33,0,0,1,.27.25l.2,2.67a.47.47,0,0,0,.49.44h3.82a.33.33,0,0,0,.35-.31V51C861.09,49,859.32,38.93,858.78,35.74Zm-5.29,8.72,2-4.94m.2,0,.44,4.94v.2h-2.47s-.25-.08-.22-.2Z" transform="translate(2.19 0.33)"/><image width="5100" height="323" transform="scale(0.25)" xlink:href="qris-partner.png"/></svg>