<svg id="Layer_4" data-name="Layer 4" xmlns="http://www.w3.org/2000/svg" viewBox="0 0 32 32"><defs><style>.cls-1{fill:#078bf3;}</style></defs><polygon class="cls-1" points="18.44 12.81 18.44 17.33 15.38 17.33 18.44 20.23 15.81 20.23 12.77 17.33 12.77 20.23 11.05 20.23 11.05 15.61 16.48 15.61 16.48 14.53 11.05 14.53 11.05 12.81 18.44 12.81"/><rect class="cls-1" x="19.22" y="12.81" width="1.8" height="7.42"/><polygon class="cls-1" points="29.12 14.64 29.12 12.81 24.23 12.81 21.81 12.81 21.81 14.64 21.81 15.58 21.81 17.41 24.23 17.41 26.7 17.41 26.7 18.36 21.81 18.36 21.81 20.18 26.7 20.18 29.12 20.18 29.12 18.36 29.12 17.41 29.12 15.58 26.7 15.58 24.23 15.58 24.23 14.64 29.12 14.64"/><path class="cls-1" d="M29.88,18.36v2.79a.39.39,0,0,1-.39.39H26.68V22h3.24a.44.44,0,0,0,.44-.44V18.36Z"/><path class="cls-1" d="M2.11,14.66v-2.8a.4.4,0,0,1,.39-.39H5.31V11H2.07a.44.44,0,0,0-.44.44v3.23Z"/><path class="cls-1" d="M7.49,18.44V20.2H3.29a.44.44,0,0,1-.44-.44V13.25a.45.45,0,0,1,.45-.44H4.73v5.63Z"/><path class="cls-1" d="M10.28,13.25a.44.44,0,0,0-.44-.44H5.63v1.85h2.8v2.77h1.85Z"/><path class="cls-1" d="M5.64,15.55v1.88H7.49V15.55Zm1.3,1.32H6.19V16.1h.75Z"/><rect class="cls-1" x="8.43" y="18.34" width="1.85" height="3.73"/></svg>